<svg version="1.1" xmlns="http://www.w3.org/2000/svg" viewBox="0 0 277.5204369458177 69.06575613872616" width="277.5204369458177" height="69.06575613872616">
  <!-- svg-source:excalidraw -->
  
  <defs>
    <style class="style-fonts">
      
    </style>
    
  </defs>
  <g stroke-linecap="round"><g stroke-opacity="0.7" fill-opacity="0.7" transform="translate(11.75136666223409 56.52375576754548) rotate(0 127.15407556882283 -21.28312220546175)"><path d="M1.1 -2.59 C25.11 -7.05, 101.59 -22.87, 143.74 -29.37 C185.89 -35.86, 235.92 -39.54, 254 -41.55 M-1.75 2.18 C21.86 -2.95, 98.88 -25.94, 141.18 -34.05 C183.48 -42.17, 233.62 -44.4, 252.03 -46.52" stroke="#1971c2" stroke-width="1" fill="none"></path></g></g><mask></mask><g stroke-linecap="round"><g stroke-opacity="0.7" fill-opacity="0.7" transform="translate(12.375602093627606 55.39396183223931) rotate(0 126.90424924193388 -19.784179968672703)"><path d="M0.7 -1.62 C13.11 -3.9, 34.82 -7.02, 77.22 -13.37 C119.63 -19.71, 225.47 -35.41, 255.14 -39.68 M-2.37 3.67 C9.57 0.56, 33.11 -10.79, 75.85 -17.5 C118.59 -24.22, 223.93 -33.54, 254.06 -36.62" stroke="#1971c2" stroke-width="1" fill="none"></path></g></g><mask></mask></svg>